<svg xmlns="http://www.w3.org/2000/svg" viewBox="0 0 243.58 69.19"><defs><style>.cls-1{fill:#fff;}.cls-2{fill:#38bdf8;}</style></defs><g id="Layer_2" data-name="Layer 2"><g id="Layer_1-2" data-name="Layer 1"><path class="cls-1" d="M17.64,1.44H30.38L48,52.56H35.86L32.39,41.11H15.56L12.1,52.56H0ZM29.93,33,24,13.32,18,33Z"/><path class="cls-1" d="M87.49,52.56H76V31.75c0-2.44-.47-4.22-1.41-5.32a4.59,4.59,0,0,0-3.7-1.66,7.22,7.22,0,0,0-3.24.83,10.2,10.2,0,0,0-3,2.29,10.43,10.43,0,0,0-2,3.32V52.56H51.06V15.19H61.42v6.38A14.14,14.14,0,0,1,65,17.81a16.23,16.23,0,0,1,5-2.38,22,22,0,0,1,6.12-.81,11.72,11.72,0,0,1,5.94,1.31,9,9,0,0,1,3.46,3.44,13.79,13.79,0,0,1,1.58,4.57,30.45,30.45,0,0,1,.4,4.79Z"/><path class="cls-1" d="M91.12,10.44V0h11.52V10.44Zm0,42.12V14.76h11.52v37.8Z"/><path class="cls-2" d="M130.46,53.28a14.64,14.64,0,0,1-7.41-1.81,13.07,13.07,0,0,1-5-4.93V67.9H106.56V15.19h10v6.17a14.35,14.35,0,0,1,12.67-6.74,16.37,16.37,0,0,1,7,1.49,17.35,17.35,0,0,1,5.58,4.11,18.72,18.72,0,0,1,3.67,6.1,21.26,21.26,0,0,1,1.3,7.52,22.89,22.89,0,0,1-2.09,9.93,17.22,17.22,0,0,1-5.8,7A14.56,14.56,0,0,1,130.46,53.28Zm-3.88-9.72a7.43,7.43,0,0,0,3.42-.8,9.16,9.16,0,0,0,2.7-2.14,9.39,9.39,0,0,0,1.76-3.11,11.33,11.33,0,0,0,.61-3.74,9.83,9.83,0,0,0-.68-3.7,9.64,9.64,0,0,0-1.91-3,8.46,8.46,0,0,0-2.88-2,9.13,9.13,0,0,0-3.6-.7,8.33,8.33,0,0,0-2.34.34,9,9,0,0,0-2.23,1,10.54,10.54,0,0,0-1.91,1.55,8,8,0,0,0-1.44,2.07V37a12.07,12.07,0,0,0,2.09,3.34,10.27,10.27,0,0,0,3,2.32A7.31,7.31,0,0,0,126.58,43.56Z"/><path class="cls-2" d="M148.22.36h11.52V39.52a5.25,5.25,0,0,0,.86,3.39,3.06,3.06,0,0,0,2.45,1,8.13,8.13,0,0,0,2.2-.32,12.22,12.22,0,0,0,2-.76l3.86,8.86a27.36,27.36,0,0,1-6.51,1.73,44,44,0,0,1-6.07.21q-4.89,0-7.59-2.63c-1.8-1.76-2.7-4.24-2.7-7.46Z"/><path class="cls-2" d="M170.38,41.43A10.41,10.41,0,0,1,172.47,35a14,14,0,0,1,5.76-4.37A21,21,0,0,1,186.65,29a26.33,26.33,0,0,1,4.54.39,17.8,17.8,0,0,1,3.89,1.12V28.88a5.75,5.75,0,0,0-1.87-4.6q-1.87-1.61-5.69-1.6a16.23,16.23,0,0,0-5.94,1.08,32,32,0,0,0-5.87,3.1l-3.46-7.35a30.24,30.24,0,0,1,7.82-3.67,29.55,29.55,0,0,1,8.6-1.22q8.49,0,13.21,4t4.72,11.54v9.67a3.84,3.84,0,0,0,.54,2.36,2.67,2.67,0,0,0,1.91.81v9.58c-1,.19-1.86.34-2.7.43a19,19,0,0,1-2.2.15,8,8,0,0,1-4.93-1.3,5.62,5.62,0,0,1-2.13-3.53l-.21-1.65a17,17,0,0,1-6,4.93,16.56,16.56,0,0,1-7.31,1.69,14.3,14.3,0,0,1-6.73-1.56,12.1,12.1,0,0,1-4.72-4.26A11,11,0,0,1,170.38,41.43Zm22.9,1.35a5.8,5.8,0,0,0,1.29-1.39,2.63,2.63,0,0,0,.51-1.45V36.68a17.41,17.41,0,0,0-3.21-.87,18.55,18.55,0,0,0-3.27-.31,9.51,9.51,0,0,0-5.26,1.35,4.1,4.1,0,0,0-2.09,3.57,3.94,3.94,0,0,0,.72,2.29,5.18,5.18,0,0,0,2,1.67,6.76,6.76,0,0,0,3,.62,10.28,10.28,0,0,0,3.46-.62A9.43,9.43,0,0,0,193.28,42.78Z"/><path class="cls-2" d="M208.66,58.25c1,.29,1.86.51,2.7.68a11.37,11.37,0,0,0,2.26.25,4.35,4.35,0,0,0,2.34-.6,4.93,4.93,0,0,0,1.7-2.06A18.26,18.26,0,0,0,219,52.69l-14.4-37.5h11.88L225.22,41l7.48-25.78h10.88l-14.4,43.57a15.45,15.45,0,0,1-3.1,5.42,14.76,14.76,0,0,1-5,3.69,15.71,15.71,0,0,1-6.48,1.32,16.86,16.86,0,0,1-2.95-.25,15.61,15.61,0,0,1-3-.83Z"/></g></g></svg>
